<?xml version="1.0" encoding="UTF-8" standalone="no"?>
<!-- Created with Inkscape (http://www.inkscape.org/) -->

<svg
   width="128"
   height="128"
   viewBox="0 0 33.866666 33.866666"
   version="1.1"
   id="svg5"
   inkscape:version="1.2.1 (9c6d41e410, 2022-07-14)"
   sodipodi:docname="mainLogo.svg"
   xml:space="preserve"
   inkscape:export-filename="mainLogo.png"
   inkscape:export-xdpi="96"
   inkscape:export-ydpi="96"
   xmlns:inkscape="http://www.inkscape.org/namespaces/inkscape"
   xmlns:sodipodi="http://sodipodi.sourceforge.net/DTD/sodipodi-0.dtd"
   xmlns="http://www.w3.org/2000/svg"
   xmlns:svg="http://www.w3.org/2000/svg"><sodipodi:namedview
     id="namedview7"
     pagecolor="#ffffff"
     bordercolor="#000000"
     borderopacity="0.25"
     inkscape:showpageshadow="2"
     inkscape:pageopacity="0.0"
     inkscape:pagecheckerboard="0"
     inkscape:deskcolor="#d1d1d1"
     inkscape:document-units="mm"
     showgrid="false"
     inkscape:zoom="3.659624"
     inkscape:cx="96.594623"
     inkscape:cy="52.054528"
     inkscape:window-width="3440"
     inkscape:window-height="1351"
     inkscape:window-x="-9"
     inkscape:window-y="246"
     inkscape:window-maximized="1"
     inkscape:current-layer="layer1" /><defs
     id="defs2"><clipPath
       clipPathUnits="userSpaceOnUse"
       id="clipPath7921"><path
         d="m 209.454,214.369 h 45.267 V 107.227 h -45.267 z"
         id="path7919" /></clipPath><clipPath
       clipPathUnits="userSpaceOnUse"
       id="clipPath7953"><path
         d="m 134.778,229.305 h 41 V 77.3555 h -41 z"
         id="path7951" /></clipPath><clipPath
       clipPathUnits="userSpaceOnUse"
       id="clipPath7985"><path
         d="M 134.778,214.369 H 250.454 V 77.3555 H 134.778 Z"
         id="path7983" /></clipPath><clipPath
       clipPathUnits="userSpaceOnUse"
       id="clipPath8055"><path
         d="M 134.778,229.305 H 250.454 V 173.369 H 134.778 Z"
         id="path8053" /></clipPath><clipPath
       clipPathUnits="userSpaceOnUse"
       id="clipPath8071"><path
         d="m 209.454,214.369 h 45.267 V 107.227 h -45.267 z"
         id="path8069" /></clipPath><clipPath
       clipPathUnits="userSpaceOnUse"
       id="clipPath8087"><path
         d="M 134.778,148.227 H 254.721 V 77.3555 H 134.778 Z"
         id="path8085" /></clipPath><clipPath
       clipPathUnits="userSpaceOnUse"
       id="clipPath8103"><path
         d="m 134.778,229.305 h 41 V 77.3555 h -41 z"
         id="path8101" /></clipPath><clipPath
       clipPathUnits="userSpaceOnUse"
       id="clipPath8119"><path
         d="M 134.778,229.305 H 254.721 V 107.227 H 134.778 Z"
         id="path8117" /></clipPath><clipPath
       clipPathUnits="userSpaceOnUse"
       id="clipPath8135"><path
         d="M 134.778,214.369 H 250.454 V 77.3555 H 134.778 Z"
         id="path8133" /></clipPath><clipPath
       clipPathUnits="userSpaceOnUse"
       id="clipPath9670"><g
         id="g9674"
         transform="matrix(4.8166929,0,0,-4.8166929,-129.03471,107.16617)"><path
           d="M -23.498901,-13.516999 H 184.11243 V 48.7664 H -23.498901 Z"
           id="path9672"
           style="stroke-width:0.207611" /></g></clipPath><clipPath
       clipPathUnits="userSpaceOnUse"
       id="clipPath9676"><g
         id="g9680"
         transform="matrix(4.8166929,0,0,-4.8166929,-124.76711,41.023668)"><path
           d="M -23.498901,-13.516999 H 184.11243 V 48.7664 H -23.498901 Z"
           id="path9678"
           style="stroke-width:0.207611" /></g></clipPath><clipPath
       clipPathUnits="userSpaceOnUse"
       id="clipPath9682"><g
         id="g9686"
         transform="matrix(4.8166929,0,0,-4.8166929,-50.091312,137.03727)"><path
           d="M -23.498901,-13.516999 H 184.11243 V 48.7664 H -23.498901 Z"
           id="path9684"
           style="stroke-width:0.207611" /></g></clipPath><clipPath
       clipPathUnits="userSpaceOnUse"
       id="clipPath9688"><g
         id="g9692"
         transform="matrix(4.8166929,0,0,-4.8166929,-50.091312,26.088068)"><path
           d="M -23.498901,-13.516999 H 184.11243 V 48.7664 H -23.498901 Z"
           id="path9690"
           style="stroke-width:0.207611" /></g></clipPath><clipPath
       clipPathUnits="userSpaceOnUse"
       id="clipPath9694"><g
         id="g9698"
         transform="matrix(4.8166929,0,0,-4.8166929,113.18699,234.89277)"><path
           d="M -23.498901,-13.516999 H 184.11243 V 48.7664 H -23.498901 Z"
           id="path9696"
           style="stroke-width:0.207611" /></g></clipPath><clipPath
       clipPathUnits="userSpaceOnUse"
       id="clipPath9700"><g
         id="g9704"
         transform="matrix(4.8166929,0,0,-4.8166929,113.18699,234.89277)"><path
           d="M -23.498901,-13.516999 H 184.11243 V 48.7664 H -23.498901 Z"
           id="path9702"
           style="stroke-width:0.207611" /></g></clipPath><clipPath
       clipPathUnits="userSpaceOnUse"
       id="clipPath9706"><g
         id="g9710"
         transform="matrix(4.8166929,0,0,-4.8166929,113.18699,234.89277)"><path
           d="M -23.498901,-13.516999 H 184.11243 V 48.7664 H -23.498901 Z"
           id="path9708"
           style="stroke-width:0.207611" /></g></clipPath><clipPath
       clipPathUnits="userSpaceOnUse"
       id="clipPath9712"><g
         id="g9716"
         transform="matrix(4.8166929,0,0,-4.8166929,113.18699,234.89277)"><path
           d="M -23.498901,-13.516999 H 184.11243 V 48.7664 H -23.498901 Z"
           id="path9714"
           style="stroke-width:0.207611" /></g></clipPath><clipPath
       clipPathUnits="userSpaceOnUse"
       id="clipPath9718"><g
         id="g9722"
         transform="matrix(4.8166929,0,0,-4.8166929,113.18699,234.89277)"><path
           d="M -23.498901,-13.516999 H 184.11243 V 48.7664 H -23.498901 Z"
           id="path9720"
           style="stroke-width:0.207611" /></g></clipPath><clipPath
       clipPathUnits="userSpaceOnUse"
       id="clipPath9724"><g
         id="g9728"
         transform="matrix(4.8166929,0,0,-4.8166929,113.18699,234.89277)"><path
           d="M -23.498901,-13.516999 H 184.11243 V 48.7664 H -23.498901 Z"
           id="path9726"
           style="stroke-width:0.207611" /></g></clipPath><clipPath
       clipPathUnits="userSpaceOnUse"
       id="clipPath13049"><g
         id="g13053"
         transform="matrix(4.8166929,0,0,-4.8166929,-445.23395,209.89609)"><path
           d="M 42.147643,7.810897 H 249.75897 V 70.094296 H 42.147643 Z"
           id="path13051"
           style="stroke-width:0.207611" /></g></clipPath><clipPath
       clipPathUnits="userSpaceOnUse"
       id="clipPath13055"><g
         id="g13059"
         transform="matrix(4.8166929,0,0,-4.8166929,-440.96635,143.75359)"><path
           d="M 42.147643,7.810897 H 249.75897 V 70.094296 H 42.147643 Z"
           id="path13057"
           style="stroke-width:0.207611" /></g></clipPath><clipPath
       clipPathUnits="userSpaceOnUse"
       id="clipPath13061"><g
         id="g13065"
         transform="matrix(4.8166929,0,0,-4.8166929,-366.29055,239.76719)"><path
           d="M 42.147643,7.810897 H 249.75897 V 70.094296 H 42.147643 Z"
           id="path13063"
           style="stroke-width:0.207611" /></g></clipPath><clipPath
       clipPathUnits="userSpaceOnUse"
       id="clipPath13067"><g
         id="g13071"
         transform="matrix(4.8166929,0,0,-4.8166929,-366.29055,128.81799)"><path
           d="M 42.147643,7.810897 H 249.75897 V 70.094296 H 42.147643 Z"
           id="path13069"
           style="stroke-width:0.207611" /></g></clipPath><clipPath
       clipPathUnits="userSpaceOnUse"
       id="clipPath13073"><g
         id="g13077"
         transform="matrix(4.8166929,0,0,-4.8166929,-203.01225,337.62269)"><path
           d="M 42.147643,7.810897 H 249.75897 V 70.094296 H 42.147643 Z"
           id="path13075"
           style="stroke-width:0.207611" /></g></clipPath><clipPath
       clipPathUnits="userSpaceOnUse"
       id="clipPath13085"><g
         id="g13089"
         transform="matrix(4.8166929,0,0,-4.8166929,-203.01225,337.62269)"><path
           d="M 42.147643,7.810897 H 249.75897 V 70.094296 H 42.147643 Z"
           id="path13087"
           style="stroke-width:0.207611" /></g></clipPath><clipPath
       clipPathUnits="userSpaceOnUse"
       id="clipPath13097"><g
         id="g13101"
         transform="matrix(4.8166929,0,0,-4.8166929,-203.01225,337.62269)"><path
           d="M 42.147643,7.810897 H 249.75897 V 70.094296 H 42.147643 Z"
           id="path13099"
           style="stroke-width:0.207611" /></g></clipPath><clipPath
       clipPathUnits="userSpaceOnUse"
       id="clipPath13109"><g
         id="g13113"
         transform="matrix(4.8166929,0,0,-4.8166929,-358.29055,108.81799)"><path
           d="M 42.147643,7.810897 H 249.75897 V 70.094296 H 42.147643 Z"
           id="path13111"
           style="stroke-width:0.207611" /></g></clipPath><clipPath
       clipPathUnits="userSpaceOnUse"
       id="clipPath13115"><g
         id="g13119"
         transform="matrix(4.8166929,0,0,-4.8166929,-358.29155,249.76529)"><path
           d="M 42.147643,7.810897 H 249.75897 V 70.094296 H 42.147643 Z"
           id="path13117"
           style="stroke-width:0.207611" /></g></clipPath></defs><g
     inkscape:label="Layer 1"
     inkscape:groupmode="layer"
     id="layer1"><rect
       style="fill:#cc3333;stroke-width:0.611892;stroke-opacity:0.960784;fill-opacity:1"
       id="rect234"
       width="5.2916665"
       height="5.2916665"
       x="2.3858325"
       y="-5.6392407" /><rect
       style="fill:#4db2cc;fill-opacity:1;stroke-width:0.611892;stroke-opacity:0.960784"
       id="rect234-1"
       width="5.2916665"
       height="5.2916665"
       x="9.8832664"
       y="-5.6392407" /><rect
       style="fill:#00b2ff;fill-opacity:1;stroke-width:0.611892;stroke-opacity:0.960784"
       id="rect234-1-3"
       width="5.2916665"
       height="5.2916665"
       x="17.380701"
       y="-5.6392407" /><g
       id="g7895"
       transform="matrix(0.20761133,0,0,-0.20761133,8.738633,1.263951)"
       clip-path="url(#clipPath13109)"
       style="opacity:0.88929889"><path
         d="M 0,0 C -4.583,0 -9.073,-1.577 -12.68,-4.533 -17.313,-8.332 -20,-14.008 -20,-20 v -110.947 c 0,-6.571 3.227,-12.721 8.632,-16.455 3.389,-2.341 7.362,-3.545 11.369,-3.545 2.386,0 4.784,0.426 7.077,1.294 l 78.943,29.869 c 8.22,3.11 13.447,11.222 12.881,19.994 l -4.268,66.142 c -0.583,9.033 -7.16,16.549 -16.036,18.324 L 3.922,-0.389 C 2.62,-0.128 1.306,0 0,0"
         style="fill:#323232;fill-opacity:1;fill-rule:nonzero;stroke:none"
         id="path7897"
         sodipodi:nodetypes="ccsscsccccccc" /></g><g
       id="g7901"
       style="stroke:#00b2ff;stroke-opacity:1"
       transform="matrix(0.20761133,0,0,-0.20761133,-23.498901,48.766399)" /><g
       clip-path="none"
       opacity="0.699997"
       id="g7911"
       style="stroke:#00b2ff;stroke-opacity:1;opacity:0.7"
       transform="matrix(0.20761133,0,0,-0.20761133,-23.498901,48.766399)"><g
         transform="translate(155.2783,208.8047)"
         id="g7909"
         style="stroke:#00b2ff;stroke-opacity:1"><path
           d="M 0,0 74.676,-14.936"
           style="fill:none;stroke:#00b2ff;stroke-width:41;stroke-linecap:round;stroke-linejoin:miter;stroke-miterlimit:10;stroke-dasharray:none;stroke-opacity:1"
           id="path7907" /></g></g><g
       id="g7933"
       style="stroke:#00b2ff;stroke-opacity:1"
       transform="matrix(0.20761133,0,0,-0.20761133,-23.498901,48.766399)"
       clip-path="none" /><g
       transform="matrix(0.20761133,0,0,-0.20761133,8.7386334,28.450488)"
       id="g7941"
       style="opacity:0.699997;stroke:#00b2ff;stroke-opacity:1"
       clip-path="none"><path
         d="M 0,0 78.942,29.871"
         style="fill:none;stroke:#00b2ff;stroke-width:41;stroke-linecap:round;stroke-linejoin:miter;stroke-miterlimit:10;stroke-dasharray:none;stroke-opacity:1"
         id="path7939" /></g><g
       id="g7965"
       style="stroke:#00b2ff;stroke-opacity:1"
       transform="matrix(0.20761133,0,0,-0.20761133,-23.498901,48.766399)" /><g
       transform="matrix(0.20761133,0,0,-0.20761133,8.7386334,5.4161775)"
       id="g7973"
       style="opacity:1;stroke:#00b2ff;stroke-opacity:1"
       clip-path="none"><path
         d="M 0,0 78.942,-81.078"
         style="fill:none;stroke:#00b2ff;stroke-width:41;stroke-linecap:round;stroke-linejoin:miter;stroke-miterlimit:10;stroke-dasharray:none;stroke-opacity:1"
         id="path7971" /></g><g
       id="g7995"
       transform="matrix(0.20761133,0,0,-0.20761133,10.399524,5.416178)"
       clip-path="url(#clipPath13067)"><path
         d="m 0,0 c 0,-4.417 -3.583,-8 -8,-8 -4.417,0 -8,3.583 -8,8 0,4.419 3.583,8 8,8 4.417,0 8,-3.581 8,-8"
         style="fill:#ffffff;fill-opacity:1;fill-rule:nonzero;stroke:none"
         id="path7997" /></g><g
       id="g7999"
       transform="matrix(0.20761133,0,0,-0.20761133,10.399524,28.450488)"
       clip-path="url(#clipPath13061)"><path
         d="m 0,0 c 0,-4.418 -3.583,-7.998 -8,-7.998 -4.419,0 -8,3.58 -8,7.998 0,4.42 3.581,8.002 8,8.002 4.417,0 8,-3.582 8,-8.002"
         style="fill:#ffffff;fill-opacity:1;fill-rule:nonzero;stroke:none"
         id="path8001" /></g><g
       id="g8003"
       transform="matrix(0.20761133,0,0,-0.20761133,25.903066,8.516977)"
       clip-path="url(#clipPath13055)"><path
         d="m 0,0 c 0,-4.42 -3.581,-8 -8,-8 -4.417,0 -8,3.58 -8,8 0,4.42 3.583,8 8,8 4.419,0 8,-3.58 8,-8"
         style="fill:#ffffff;fill-opacity:1;fill-rule:nonzero;stroke:none"
         id="path8005" /></g><g
       id="g8007"
       transform="matrix(0.20761133,0,0,-0.20761133,26.789068,22.24891)"
       clip-path="url(#clipPath13049)"
       style="stroke:none;stroke-opacity:1"><path
         d="M 0,0 C 0,-4.418 -3.583,-8 -8.001,-8 -12.419,-8 -16,-4.418 -16,0 c 0,4.42 3.581,8 7.999,8 C -3.583,8 0,4.42 0,0"
         style="fill:#ffffff;fill-opacity:1;fill-rule:nonzero;stroke:none;stroke-opacity:1"
         id="path8009" /></g></g></svg>
