<?xml version="1.0" encoding="UTF-8" standalone="no"?>
<!-- Created with Inkscape (http://www.inkscape.org/) -->

<svg
   width="128"
   height="128"
   viewBox="0 0 33.866666 33.866666"
   version="1.1"
   id="svg5"
   inkscape:version="1.2.1 (9c6d41e410, 2022-07-14)"
   sodipodi:docname="DynaShape.ZeroTouch.Goals.AngleGoal.Change.svg"
   xml:space="preserve"
   inkscape:export-filename="DynaShape.ZeroTouch.Goals.AngleGoal.Change.Small.png"
   inkscape:export-xdpi="24"
   inkscape:export-ydpi="24"
   xmlns:inkscape="http://www.inkscape.org/namespaces/inkscape"
   xmlns:sodipodi="http://sodipodi.sourceforge.net/DTD/sodipodi-0.dtd"
   xmlns="http://www.w3.org/2000/svg"
   xmlns:svg="http://www.w3.org/2000/svg"><sodipodi:namedview
     id="namedview7"
     pagecolor="#ffffff"
     bordercolor="#000000"
     borderopacity="0.25"
     inkscape:showpageshadow="2"
     inkscape:pageopacity="0.0"
     inkscape:pagecheckerboard="0"
     inkscape:deskcolor="#d1d1d1"
     inkscape:document-units="mm"
     showgrid="false"
     inkscape:zoom="8.7890625"
     inkscape:cx="46.364444"
     inkscape:cy="64.113778"
     inkscape:window-width="2398"
     inkscape:window-height="1341"
     inkscape:window-x="533"
     inkscape:window-y="255"
     inkscape:window-maximized="0"
     inkscape:current-layer="layer1" /><defs
     id="defs2" /><g
     inkscape:label="Layer 1"
     inkscape:groupmode="layer"
     id="layer1"><rect
       style="fill:#cc3333;stroke-width:0.611892;stroke-opacity:0.960784;fill-opacity:1"
       id="rect234"
       width="5.2916665"
       height="5.2916665"
       x="2.3858325"
       y="-5.6392407" /><rect
       style="fill:#4db2cc;fill-opacity:1;stroke-width:0.611892;stroke-opacity:0.960784"
       id="rect234-1"
       width="5.2916665"
       height="5.2916665"
       x="9.8832664"
       y="-5.6392407" /><rect
       style="fill:#00b2ff;fill-opacity:1;stroke-width:0.611892;stroke-opacity:0.960784"
       id="rect234-1-3"
       width="5.2916665"
       height="5.2916665"
       x="17.380701"
       y="-5.6392407" /><path
       d="m 47.823773,16.211327 h -3.087181 v -3.083222 c 0,-0.378788 -0.378788,-0.706773 -0.790143,-0.706773 h -1.419057 c -0.413024,0 -0.791811,0.332409 -0.791811,0.706773 v 3.083222 h -3.090998 c -0.378787,0 -0.706772,0.376031 -0.706772,0.791811 v 1.414675 c 0,0.424064 0.33241,0.794568 0.706772,0.794568 h 3.087181 v 3.128032 c 0,0.371607 0.378788,0.664253 0.791811,0.664253 h 1.417361 c 0.411369,0 0.790143,-0.292646 0.790143,-0.664253 v -3.126901 h 3.092694 c 0.378787,0 0.706771,-0.374364 0.706771,-0.794568 v -1.414675 c 0,-0.41578 -0.332409,-0.791811 -0.706771,-0.791811 z"
       fill-rule="evenodd"
       id="path4951-7"
       style="fill:#cc3333;fill-opacity:1;stroke-width:0.141354" /><path
       d="M 0.014871,22.374179 V 22.273685 L 12.476485,0.72304528 c 0.200993,-0.33411839 0.535125,-0.56773392 0.901854,-0.66823672 0.368063,-0.10049574 0.768739,-0.06656277 1.102856,0.13312608 0.368066,0.20099225 0.601681,0.53512404 0.702185,0.90185246 0.100494,0.3680648 0.03393,0.7687395 -0.133128,1.135468 L 8.903143,12.882964 c 2.204412,1.705842 3.641222,4.211563 4.008084,6.985079 h 12.329638 c 0.801348,0 1.469586,0.668238 1.469586,1.469587 0,0.80135 -0.668238,1.469587 -1.469586,1.469587 H 0.383123 c -0.06656,0 -0.133126,0 -0.200993,-0.03393 0,0 0,-0.03393 -0.03393,-0.03393 C 0.11428,22.705427 0.08164,22.672797 0.08164,22.638862 0.04771,22.604942 0.04771,22.538368 0.01508,22.505735 v -0.03393 c -0.03393,-0.03132 0,-0.06526 0,-0.09789 z M 9.904108,19.868291 C 9.569989,18.163752 8.700747,16.627609 7.398219,15.52475 l -2.539833,4.343541 z"
       id="path5134"
       style="fill:#00b2ff;fill-opacity:1;stroke-width:0.334119" /><polygon
       points="36.4222,25.183 43,0 11,38.817 27.5778,38.817 21,64 53,25.183 "
       id="polygon296"
       transform="matrix(-0.2015873,0,0,0.2015873,36.084127,20.965079)"
       style="fill:#cc3333;fill-opacity:1" /></g><style
     type="text/css"
     id="style294">
	.st0{fill:none;stroke:#000000;stroke-width:2;stroke-miterlimit:10;}
	.st1{stroke:#000000;stroke-width:0.75;stroke-linecap:square;stroke-linejoin:round;stroke-miterlimit:10;}
	.st2{fill:none;stroke:#000000;stroke-width:2;stroke-linejoin:round;stroke-miterlimit:10;}
	.st3{fill:none;stroke:#000000;stroke-width:2;stroke-linecap:round;stroke-miterlimit:10;}
	.st4{stroke:#000000;stroke-width:2;stroke-miterlimit:10;}
</style></svg>
