<?xml version="1.0" encoding="UTF-8" standalone="no"?>
<!-- Created with Inkscape (http://www.inkscape.org/) -->

<svg
   width="128"
   height="128"
   viewBox="0 0 33.866666 33.866666"
   version="1.1"
   id="svg5"
   inkscape:version="1.2.1 (9c6d41e410, 2022-07-14)"
   sodipodi:docname="DynaShape.ZeroTouch.Goals.AnchorGoal.Create.svg"
   xml:space="preserve"
   xmlns:inkscape="http://www.inkscape.org/namespaces/inkscape"
   xmlns:sodipodi="http://sodipodi.sourceforge.net/DTD/sodipodi-0.dtd"
   xmlns="http://www.w3.org/2000/svg"
   xmlns:svg="http://www.w3.org/2000/svg"><sodipodi:namedview
     id="namedview7"
     pagecolor="#ffffff"
     bordercolor="#000000"
     borderopacity="0.25"
     inkscape:showpageshadow="2"
     inkscape:pageopacity="0.0"
     inkscape:pagecheckerboard="0"
     inkscape:deskcolor="#d1d1d1"
     inkscape:document-units="mm"
     showgrid="false"
     inkscape:zoom="3.659624"
     inkscape:cx="53.967293"
     inkscape:cy="59.978839"
     inkscape:window-width="2398"
     inkscape:window-height="1341"
     inkscape:window-x="533"
     inkscape:window-y="255"
     inkscape:window-maximized="0"
     inkscape:current-layer="layer1" /><defs
     id="defs2" /><g
     inkscape:label="Layer 1"
     inkscape:groupmode="layer"
     id="layer1"><path
       d="m 24.461153,20.807329 -0.123399,-5.090166 a 0.74038768,0.74038768 0 0 0 -1.121799,-0.614185 l -4.346973,2.653056 a 0.74038768,0.74038768 0 0 0 0.03084,1.28446 l 0.84135,0.459939 a 8.9575691,8.9575691 0 0 1 -5.266845,3.699134 V 9.2864482 a 4.9162863,4.9162863 0 1 0 -4.5040232,0 V 23.199567 A 8.9575691,8.9575691 0 0 1 4.7230901,19.511651 l 0.8413493,-0.459939 a 0.74038768,0.74038768 0 0 0 0.03084,-1.284459 L 1.2539195,15.114197 A 0.74038768,0.74038768 0 0 0 0.13212044,15.72838 L 3.0805581e-4,20.807329 A 0.74038768,0.74038768 0 0 0 1.0968673,21.477604 l 0.998402,-0.544071 a 12.059344,12.059344 0 0 0 20.2709167,0 l 0.998403,0.544071 a 0.74038768,0.74038768 0 0 0 1.09656,-0.670275 z M 12.230734,6.6698501 a 1.7500072,1.7500072 0 1 1 1.750007,-1.750007 1.7500072,1.7500072 0 0 1 -1.750007,1.750007 z"
       id="path184"
       style="fill:#73C5FF;fill-opacity:1;stroke-width:0.28045" /><path
       d="m 33.159896,27.073328 h -3.087181 v -3.083222 c 0,-0.378788 -0.378788,-0.706773 -0.790143,-0.706773 h -1.419057 c -0.413024,0 -0.791811,0.332409 -0.791811,0.706773 v 3.083222 h -3.090998 c -0.378787,0 -0.706772,0.376031 -0.706772,0.791811 v 1.414675 c 0,0.424064 0.33241,0.794568 0.706772,0.794568 h 3.087181 v 3.128032 c 0,0.371607 0.378788,0.664253 0.791811,0.664253 h 1.417361 c 0.411369,0 0.790143,-0.292646 0.790143,-0.664253 v -3.126901 h 3.092694 c 0.378787,0 0.706771,-0.374364 0.706771,-0.794568 V 27.86627 c 0,-0.41578 -0.332409,-0.791811 -0.706771,-0.791811 z"
       fill-rule="evenodd"
       id="path4951"
       style="fill:#ff6900;fill-opacity:1;stroke-width:0.141354" /></g></svg>
