<?xml version="1.0" encoding="UTF-8" standalone="no"?>
<!-- Created with Inkscape (http://www.inkscape.org/) -->

<svg
   width="128"
   height="128"
   viewBox="0 0 33.866666 33.866666"
   version="1.1"
   id="svg5"
   inkscape:version="1.2.1 (9c6d41e410, 2022-07-14)"
   sodipodi:docname="DynaShape.ZeroTouch.GeometryBinders.MeshBinder.ByMesh.svg"
   xml:space="preserve"
   inkscape:export-filename="DynaShape.ZeroTouch.GeometryBinders.MeshBinder.ByMesh.Large.png"
   inkscape:export-xdpi="96"
   inkscape:export-ydpi="96"
   xmlns:inkscape="http://www.inkscape.org/namespaces/inkscape"
   xmlns:sodipodi="http://sodipodi.sourceforge.net/DTD/sodipodi-0.dtd"
   xmlns:xlink="http://www.w3.org/1999/xlink"
   xmlns="http://www.w3.org/2000/svg"
   xmlns:svg="http://www.w3.org/2000/svg"><sodipodi:namedview
     id="namedview7"
     pagecolor="#ffffff"
     bordercolor="#000000"
     borderopacity="0.25"
     inkscape:showpageshadow="2"
     inkscape:pageopacity="0.0"
     inkscape:pagecheckerboard="0"
     inkscape:deskcolor="#d1d1d1"
     inkscape:document-units="mm"
     showgrid="false"
     inkscape:zoom="3.811409"
     inkscape:cx="45.521223"
     inkscape:cy="46.045964"
     inkscape:window-width="2398"
     inkscape:window-height="1341"
     inkscape:window-x="533"
     inkscape:window-y="255"
     inkscape:window-maximized="0"
     inkscape:current-layer="layer1" /><defs
     id="defs2"><linearGradient
       inkscape:collect="always"
       id="linearGradient3950"><stop
         style="stop-color:#73c5ff;stop-opacity:1;"
         offset="0.46246478"
         id="stop3948" /><stop
         style="stop-color:#ff6900;stop-opacity:1;"
         offset="1"
         id="stop3946" /></linearGradient><inkscape:perspective
       sodipodi:type="inkscape:persp3d"
       inkscape:vp_x="4.6141295 : 8.1468524 : 1"
       inkscape:vp_y="-500 : -866.0254 : 0"
       inkscape:vp_z="38.480795 : 8.1468524 : 1"
       inkscape:persp3d-origin="21.547462 : 2.5024084 : 1"
       id="perspective1578" /><inkscape:perspective
       sodipodi:type="inkscape:persp3d"
       inkscape:vp_x="0 : 16.933333 : 1"
       inkscape:vp_y="0 : 1000 : 0"
       inkscape:vp_z="33.866666 : 16.933333 : 1"
       inkscape:persp3d-origin="16.933333 : 11.288889 : 1"
       id="perspective1534" /><style
       type="text/css"
       id="style7514">
   
    .fil0 {fill:black}
   
  </style><style
       id="style7645">
      .cls-1 {
        stroke-width: 0px;
      }
    </style><inkscape:perspective
       sodipodi:type="inkscape:persp3d"
       inkscape:vp_x="4.6141295 : 8.1468524 : 1"
       inkscape:vp_y="-500 : -866.0254 : 0"
       inkscape:vp_z="38.480795 : 8.1468524 : 1"
       inkscape:persp3d-origin="21.547462 : 2.5024084 : 1"
       id="perspective1578-9" /><inkscape:perspective
       sodipodi:type="inkscape:persp3d"
       inkscape:vp_x="0 : 16.933333 : 1"
       inkscape:vp_y="0 : 1000 : 0"
       inkscape:vp_z="33.866666 : 16.933333 : 1"
       inkscape:persp3d-origin="16.933333 : 11.288889 : 1"
       id="perspective1534-5" /><style
       type="text/css"
       id="style7514-4">
   
    .fil0 {fill:black}
   
  </style><style
       id="style7645-4">
      .cls-1 {
        stroke-width: 0px;
      }
    </style><inkscape:perspective
       sodipodi:type="inkscape:persp3d"
       inkscape:vp_x="4.6141295 : 8.1468524 : 1"
       inkscape:vp_y="-500 : -866.0254 : 0"
       inkscape:vp_z="38.480795 : 8.1468524 : 1"
       inkscape:persp3d-origin="21.547462 : 2.5024084 : 1"
       id="perspective1578-0" /><inkscape:perspective
       sodipodi:type="inkscape:persp3d"
       inkscape:vp_x="0 : 16.933333 : 1"
       inkscape:vp_y="0 : 1000 : 0"
       inkscape:vp_z="33.866666 : 16.933333 : 1"
       inkscape:persp3d-origin="16.933333 : 11.288889 : 1"
       id="perspective1534-3" /><style
       type="text/css"
       id="style7514-50">
   
    .fil0 {fill:black}
   
  </style><style
       id="style7645-7">
      .cls-1 {
        stroke-width: 0px;
      }
    </style><style
       type="text/css"
       id="style7514-5">
   
    .fil0 {fill:black}
   
  </style><style
       id="style7645-0">
      .cls-1 {
        stroke-width: 0px;
      }
    </style><inkscape:perspective
       sodipodi:type="inkscape:persp3d"
       inkscape:vp_x="4.6141295 : 8.1468524 : 1"
       inkscape:vp_y="-500 : -866.0254 : 0"
       inkscape:vp_z="38.480795 : 8.1468524 : 1"
       inkscape:persp3d-origin="21.547462 : 2.5024084 : 1"
       id="perspective1578-4" /><inkscape:perspective
       sodipodi:type="inkscape:persp3d"
       inkscape:vp_x="0 : 16.933333 : 1"
       inkscape:vp_y="0 : 1000 : 0"
       inkscape:vp_z="33.866666 : 16.933333 : 1"
       inkscape:persp3d-origin="16.933333 : 11.288889 : 1"
       id="perspective1534-4" /><style
       type="text/css"
       id="style7514-0">
   
    .fil0 {fill:black}
   
  </style><style
       id="style7645-4-9">
      .cls-1 {
        stroke-width: 0px;
      }
    </style><style
       type="text/css"
       id="style7514-9">
   
    .fil0 {fill:black}
   
  </style><linearGradient
       inkscape:collect="always"
       xlink:href="#linearGradient3950"
       id="linearGradient3952"
       x1="38.671989"
       y1="14.488001"
       x2="43.522362"
       y2="18.146032"
       gradientUnits="userSpaceOnUse"
       spreadMethod="repeat" /></defs><g
     inkscape:label="Layer 1"
     inkscape:groupmode="layer"
     id="layer1"><g
       id="g4059"
       transform="translate(-19.884508,4.5899341)"><path
         style="fill:url(#linearGradient3952);fill-opacity:1;stroke:none;stroke-width:0.334785"
         d="m 40.971145,19.28577 c -0.775331,-0.276567 -1.106414,-0.753036 -1.234937,-1.777222 -0.114632,-0.913499 -0.27082,-1.295374 -0.704365,-1.722154 l -0.359852,-0.354238 0.204728,-0.21369 c 0.288424,-0.30105 0.963371,-0.614475 1.504748,-0.69876 1.354289,-0.210843 2.762818,0.651953 3.153933,1.931946 0.140356,0.459339 0.134262,1.250885 -0.01304,1.69438 -0.167488,0.504257 -0.654352,0.984429 -1.146269,1.130513 -0.446411,0.13257 -1.048082,0.136521 -1.404943,0.0092 z"
         id="path3891" /><path
         style="fill:#ff6900;fill-opacity:1;stroke:none;stroke-width:0.334785"
         d="m 44.02736,22.42993 c -0.550336,-0.792242 -1.056782,-1.527582 -1.125434,-1.634089 l -0.124822,-0.19365 1.135096,-1.142662 c 0.624302,-0.628464 1.162046,-1.142661 1.194985,-1.142661 0.03294,0 0.789205,0.510368 1.68059,1.134151 l 1.620703,1.134151 -1.643669,1.6426 c -0.904019,0.90343 -1.664633,1.642599 -1.690254,1.642599 -0.02562,0 -0.496859,-0.648197 -1.047195,-1.440439 z"
         id="path3893" /><path
         style="fill:#ff6900;fill-opacity:1;stroke:none;stroke-width:0.334785"
         d="m 52.302962,29.056009 c -0.396992,-0.240713 -6.632528,-4.586967 -6.780634,-4.726196 -0.06677,-0.06277 0.281494,-0.44772 1.569996,-1.735384 l 1.655799,-1.654722 0.174366,0.233148 c 0.540925,0.723289 4.594722,6.579975 4.707654,6.801344 0.238025,0.466564 0.12277,0.882997 -0.326334,1.179084 -0.288578,0.190257 -0.572082,0.1627 -1.000847,-0.09727 z"
         id="path3895" /></g><path
       d="M 14.783751,2.1321375 3.3192507,8.1838109 C 3.0639865,8.0588791 2.7811368,7.9806632 2.4793745,7.9679009 1.3156713,7.9186863 0.32923428,8.8250753 0.28001967,9.9887777 0.23078197,11.153036 1.1371451,12.140029 2.3008483,12.189244 c 0.2834234,0.01204 0.555398,-0.03442 0.8064442,-0.125685 l 5.1344268,5.758813 c -0.1536996,0.277431 -0.2542747,0.588842 -0.268588,0.927283 -0.04922,1.163702 0.8577048,2.150718 2.0214084,2.199933 1.1009063,0.04656 2.0332363,-0.765246 2.1737683,-1.837124 l 11.275433,-4.753589 c 0.361102,0.360441 0.847695,0.597031 1.39676,0.620253 1.16426,0.04924 2.151275,-0.857682 2.200514,-2.021941 0.04922,-1.163705 -0.857729,-2.150164 -2.021987,-2.199403 -0.355669,-0.01504 -0.689309,0.06772 -0.990428,0.210869 L 18.292761,3.9496042 C 18.694055,3.5835478 18.955973,3.0640646 18.980674,2.4799905 19.029894,1.3162869 18.122969,0.3292705 16.959266,0.28005589 15.853382,0.23273147 14.917363,1.0527291 14.783751,2.1321375 Z M 11.313744,17.124441 12.82043,12.578469 c 0.148614,0.04024 0.301658,0.06787 0.46171,0.07463 1.046998,0.04428 1.944222,-0.687729 2.150514,-1.682224 l 7.399151,2.034315 c 0.02141,0.323251 0.110981,0.627115 0.26275,0.895751 l -10.924596,4.606427 c -0.08966,-0.56553 -0.406702,-1.059392 -0.856215,-1.382931 z M 15.397426,3.8922926 13.746733,8.473375 C 13.652819,8.4561372 13.559029,8.4359312 13.460665,8.4317708 12.391993,8.3865779 11.481736,9.1503204 11.300293,10.17593 L 4.4847932,9.8876978 C 4.4369328,9.3606808 4.1963115,8.8895363 3.8279049,8.5438163 L 14.791884,2.7560198 c 0.07764,0.4414278 0.29655,0.8337122 0.605542,1.1362765 z M 4.4612673,10.443983 11.276767,10.73222 c 0.06264,0.690761 0.456694,1.285865 1.031403,1.624164 L 10.813039,16.8661 c -0.201714,-0.07477 -0.413767,-0.128848 -0.63995,-0.138413 -0.621864,-0.0263 -1.1875863,0.225911 -1.5925193,0.638577 L 3.6098336,11.791429 c 0.4403012,-0.3143 0.7532516,-0.789872 0.851434,-1.347455 z M 22.868025,12.438319 15.468852,10.404557 C 15.417565,9.6296519 14.954346,8.9586929 14.279315,8.6361934 L 15.864361,4.238282 c 0.274792,0.1502433 0.582431,0.2478795 0.916425,0.2620046 0.37901,0.016029 0.734261,-0.077507 1.049006,-0.2401235 l 5.727349,7.0092249 c -0.345514,0.297711 -0.592033,0.703161 -0.689116,1.168931 z"
       id="path1089"
       style="fill:#73c5ff;fill-opacity:1;stroke:#73c5ff;stroke-width:0.556229;stroke-opacity:1" /></g><style
     type="text/css"
     id="style294">
	.st0{fill:none;stroke:#000000;stroke-width:2;stroke-miterlimit:10;}
	.st1{stroke:#000000;stroke-width:0.75;stroke-linecap:square;stroke-linejoin:round;stroke-miterlimit:10;}
	.st2{fill:none;stroke:#000000;stroke-width:2;stroke-linejoin:round;stroke-miterlimit:10;}
	.st3{fill:none;stroke:#000000;stroke-width:2;stroke-linecap:round;stroke-miterlimit:10;}
	.st4{stroke:#000000;stroke-width:2;stroke-miterlimit:10;}
</style></svg>
