<?xml version="1.0" encoding="UTF-8" standalone="no"?>
<!-- Created with Inkscape (http://www.inkscape.org/) -->

<svg
   width="128"
   height="128"
   viewBox="0 0 33.866666 33.866666"
   version="1.1"
   id="svg5"
   inkscape:version="1.2.1 (9c6d41e410, 2022-07-14)"
   sodipodi:docname="DynaShape.ZeroTouch.Goals.SphereStaticLineCollisionGoal.Change.svg"
   xml:space="preserve"
   inkscape:export-filename="DynaShape.ZeroTouch.Goals.SphereStaticLineCollisionGoal.Change.Small.png"
   inkscape:export-xdpi="24"
   inkscape:export-ydpi="24"
   xmlns:inkscape="http://www.inkscape.org/namespaces/inkscape"
   xmlns:sodipodi="http://sodipodi.sourceforge.net/DTD/sodipodi-0.dtd"
   xmlns="http://www.w3.org/2000/svg"
   xmlns:svg="http://www.w3.org/2000/svg"><sodipodi:namedview
     id="namedview7"
     pagecolor="#ffffff"
     bordercolor="#000000"
     borderopacity="0.25"
     inkscape:showpageshadow="2"
     inkscape:pageopacity="0.0"
     inkscape:pagecheckerboard="0"
     inkscape:deskcolor="#d1d1d1"
     inkscape:document-units="mm"
     showgrid="false"
     inkscape:zoom="3.811409"
     inkscape:cx="32.402715"
     inkscape:cy="31.090864"
     inkscape:window-width="2398"
     inkscape:window-height="1341"
     inkscape:window-x="533"
     inkscape:window-y="255"
     inkscape:window-maximized="0"
     inkscape:current-layer="layer1" /><defs
     id="defs2"><inkscape:perspective
       sodipodi:type="inkscape:persp3d"
       inkscape:vp_x="4.6141295 : 8.1468524 : 1"
       inkscape:vp_y="-500 : -866.0254 : 0"
       inkscape:vp_z="38.480795 : 8.1468524 : 1"
       inkscape:persp3d-origin="21.547462 : 2.5024084 : 1"
       id="perspective1578" /><inkscape:perspective
       sodipodi:type="inkscape:persp3d"
       inkscape:vp_x="0 : 16.933333 : 1"
       inkscape:vp_y="0 : 1000 : 0"
       inkscape:vp_z="33.866666 : 16.933333 : 1"
       inkscape:persp3d-origin="16.933333 : 11.288889 : 1"
       id="perspective1534" /><style
       type="text/css"
       id="style7514">
   
    .fil0 {fill:black}
   
  </style><style
       id="style7645">
      .cls-1 {
        stroke-width: 0px;
      }
    </style><inkscape:perspective
       sodipodi:type="inkscape:persp3d"
       inkscape:vp_x="4.6141295 : 8.1468524 : 1"
       inkscape:vp_y="-500 : -866.0254 : 0"
       inkscape:vp_z="38.480795 : 8.1468524 : 1"
       inkscape:persp3d-origin="21.547462 : 2.5024084 : 1"
       id="perspective1578-9" /><inkscape:perspective
       sodipodi:type="inkscape:persp3d"
       inkscape:vp_x="0 : 16.933333 : 1"
       inkscape:vp_y="0 : 1000 : 0"
       inkscape:vp_z="33.866666 : 16.933333 : 1"
       inkscape:persp3d-origin="16.933333 : 11.288889 : 1"
       id="perspective1534-5" /><style
       type="text/css"
       id="style7514-4">
   
    .fil0 {fill:black}
   
  </style><style
       id="style7645-4">
      .cls-1 {
        stroke-width: 0px;
      }
    </style></defs><g
     inkscape:label="Layer 1"
     inkscape:groupmode="layer"
     id="layer1"><rect
       style="fill:#cc3333;stroke-width:0.611892;stroke-opacity:0.960784;fill-opacity:1"
       id="rect234"
       width="5.2916665"
       height="5.2916665"
       x="2.3858325"
       y="-5.6392407" /><rect
       style="fill:#4db2cc;fill-opacity:1;stroke-width:0.611892;stroke-opacity:0.960784"
       id="rect234-1"
       width="5.2916665"
       height="5.2916665"
       x="9.8832664"
       y="-5.6392407" /><rect
       style="fill:#00b2ff;fill-opacity:1;stroke-width:0.611892;stroke-opacity:0.960784"
       id="rect234-1-3"
       width="5.2916665"
       height="5.2916665"
       x="17.380701"
       y="-5.6392407" /><path
       d="M 46.322422,12.8046 H 43.235241 V 9.7213784 c 0,-0.378788 -0.378788,-0.706773 -0.790143,-0.706773 h -1.419057 c -0.413024,0 -0.791811,0.332409 -0.791811,0.706773 V 12.8046 h -3.090998 c -0.378787,0 -0.706772,0.376031 -0.706772,0.791811 v 1.414675 c 0,0.424064 0.33241,0.794568 0.706772,0.794568 h 3.087181 v 3.128033 c 0,0.371607 0.378788,0.664253 0.791811,0.664253 h 1.417361 c 0.411369,0 0.790143,-0.292646 0.790143,-0.664253 v -3.126902 h 3.092694 c 0.378787,0 0.706771,-0.374364 0.706771,-0.794568 v -1.414675 c 0,-0.41578 -0.332409,-0.791811 -0.706771,-0.791811 z"
       fill-rule="evenodd"
       id="path4951-7"
       style="fill:#cc3333;fill-opacity:1;stroke-width:0.141354" /><path
       style="opacity:1;fill:none;stroke:#00b2ff;stroke-width:1.35139;stroke-opacity:1"
       d="M 2.0588754,20.027849 18.330732,2.99508 l 8.993709,9.16609 -5.354636,10.640866 -10.832507,1.871525 z"
       id="path359" /><path
       d="m 24.218592,11.107885 c -0.848546,0 -1.536355,0.687843 -1.536355,1.536354 0,0.848512 0.687809,1.536321 1.536355,1.536321 0.848512,0 1.536355,-0.687809 1.536355,-1.536321 0,-0.848511 -0.687843,-1.536354 -1.536355,-1.536354 z m -0.362034,0.535266 c -0.0086,0.07979 -0.188016,0.128029 -0.325536,0.277841 -0.149744,0.137521 -0.197985,0.316864 -0.277842,0.325502 -0.08597,0.024 -0.20273,-0.277773 0.05971,-0.543596 0.265858,-0.262478 0.567701,-0.145749 0.543665,-0.05975 z"
       id="path6008"
       style="fill:#cc3333;fill-opacity:1;stroke-width:0.0341412" /><path
       d="m 18.309259,4.8449056 c -0.848546,0 -1.536355,0.687843 -1.536355,1.536354 0,0.848512 0.687809,1.536321 1.536355,1.536321 0.848512,0 1.536355,-0.687809 1.536355,-1.536321 0,-0.848511 -0.687843,-1.536354 -1.536355,-1.536354 z m -0.362034,0.535266 c -0.0086,0.07979 -0.188016,0.128029 -0.325536,0.277841 -0.149744,0.137521 -0.197985,0.316864 -0.277842,0.325502 -0.08597,0.024 -0.20273,-0.277773 0.05971,-0.543596 0.265858,-0.262478 0.567701,-0.145749 0.543665,-0.05975 z"
       id="path6008-1"
       style="fill:#cc3333;fill-opacity:1;stroke-width:0.0341412" /><path
       d="m 6.1411441,17.926454 c -0.848546,0 -1.536355,0.687843 -1.536355,1.536354 0,0.848512 0.687809,1.536321 1.536355,1.536321 0.848512,0 1.536355,-0.687809 1.536355,-1.536321 0,-0.848511 -0.687843,-1.536354 -1.536355,-1.536354 z m -0.362034,0.535266 c -0.0086,0.07979 -0.188016,0.128029 -0.325536,0.277841 -0.149744,0.137521 -0.197985,0.316864 -0.277842,0.325502 -0.08597,0.024 -0.20273,-0.277773 0.05971,-0.543596 0.265858,-0.262478 0.567701,-0.145749 0.543665,-0.05975 z"
       id="path6008-1-8"
       style="fill:#cc3333;fill-opacity:1;stroke-width:0.0341412" /><path
       d="m 11.608954,20.688663 c -0.848546,0 -1.536355,0.687843 -1.536355,1.536354 0,0.848512 0.687809,1.536321 1.536355,1.536321 0.848511,0 1.536354,-0.687809 1.536354,-1.536321 0,-0.848511 -0.687843,-1.536354 -1.536354,-1.536354 z m -0.362034,0.535266 c -0.0086,0.07979 -0.188016,0.128029 -0.325536,0.277841 -0.149744,0.137521 -0.197985,0.316864 -0.277842,0.325502 -0.08597,0.024 -0.20273,-0.277773 0.05971,-0.543596 0.265858,-0.262478 0.567701,-0.145749 0.543665,-0.05975 z"
       id="path6008-1-7"
       style="fill:#cc3333;fill-opacity:1;stroke-width:0.0341412" /><path
       d="m 20.026534,18.88364 c -0.848546,0 -1.536355,0.687843 -1.536355,1.536354 0,0.848512 0.687809,1.536321 1.536355,1.536321 0.848512,0 1.536355,-0.687809 1.536355,-1.536321 0,-0.848511 -0.687843,-1.536354 -1.536355,-1.536354 z M 19.6645,19.418906 c -0.0086,0.07979 -0.188016,0.128029 -0.325536,0.277841 -0.149744,0.137521 -0.197985,0.316864 -0.277842,0.325502 -0.08597,0.024 -0.20273,-0.277773 0.05971,-0.543596 0.265858,-0.262478 0.567701,-0.145749 0.543665,-0.05975 z"
       id="path6008-1-9"
       style="fill:#cc3333;fill-opacity:1;stroke-width:0.0341412" /><polygon
       points="36.4222,25.183 43,0 11,38.817 27.5778,38.817 21,64 53,25.183 "
       id="polygon296"
       transform="matrix(-0.2015873,0,0,0.2015873,36.084127,20.965079)"
       style="fill:#cc3333;fill-opacity:1" /></g><style
     type="text/css"
     id="style294">
	.st0{fill:none;stroke:#000000;stroke-width:2;stroke-miterlimit:10;}
	.st1{stroke:#000000;stroke-width:0.75;stroke-linecap:square;stroke-linejoin:round;stroke-miterlimit:10;}
	.st2{fill:none;stroke:#000000;stroke-width:2;stroke-linejoin:round;stroke-miterlimit:10;}
	.st3{fill:none;stroke:#000000;stroke-width:2;stroke-linecap:round;stroke-miterlimit:10;}
	.st4{stroke:#000000;stroke-width:2;stroke-miterlimit:10;}
</style></svg>
