<svg xmlns="http://www.w3.org/2000/svg" xmlns:xlink="http://www.w3.org/1999/xlink" version="1.1" x="0px" y="0px" viewBox="0 0 64 80" style="enable-background:new 0 0 64 64;" xml:space="preserve"><path d="M32,3.5C16.2851563,3.5,3.5,16.2851563,3.5,32S16.2851563,60.5,32,60.5S60.5,47.7148438,60.5,32S47.7148438,3.5,32,3.5z   M32,5.5c13.5114136,0,24.6854248,10.1663818,26.2935791,23.2501221c-0.118103-0.0786133-0.2315063-0.15802-0.3590088-0.2349854  c-0.4746094-0.2866211-1.0874023-0.1342773-1.3725586,0.3393555c-0.2856445,0.4726563-0.1337891,1.0874023,0.3393555,1.3725586  C57.9321289,30.8496094,58.5,31.4790039,58.5,32c0,2.453125-10.081543,5.875-26.5,5.875S5.5,34.453125,5.5,32  c0-0.5209961,0.5678711-1.1503906,1.5986328-1.7729492c0.4731445-0.2851563,0.625-0.8999023,0.3393555-1.3725586  c-0.2851563-0.4736328-0.8994141-0.6259766-1.3725586-0.3393555c-0.1275024,0.0769653-0.2409058,0.1563721-0.3590088,0.2349854  C7.3145752,15.6663818,18.4885864,5.5,32,5.5z M32,58.5c-13.5154419,0-24.6920776-10.1724854-26.2950439-23.2618408  C10.2529297,38.2923584,21.1735229,39.875,32,39.875s21.7470703-1.5826416,26.2950439-4.6368408  C56.6920776,48.3275146,45.5154419,58.5,32,58.5z"/><path d="M43.3554688,26.7431641c2.078125,0.2387695,4.03125,0.543457,5.8051758,0.9047852  c0.0673828,0.0136719,0.1347656,0.0200195,0.2006836,0.0200195c0.465332,0,0.8823242-0.3266602,0.9790039-0.800293  c0.1103516-0.5410156-0.2392578-1.0693359-0.7802734-1.1796875c-1.8300781-0.3725586-3.8408203-0.6865234-5.9760742-0.9321289  c-0.543457-0.0629883-1.0444336,0.3305664-1.1079102,0.8793945C42.4130859,26.184082,42.8066406,26.6796875,43.3554688,26.7431641z"/><path d="M29.0371094,26.1645508c1.9404297-0.0517578,3.9667969-0.0517578,5.9091797,0  c0.0092773,0.0004883,0.0180664,0.0004883,0.0273438,0.0004883c0.5395508,0,0.984375-0.4301758,0.9990234-0.9731445  C35.987793,24.6401367,35.5522461,24.1801758,35,24.1655273c-1.9780273-0.0541992-4.0410156-0.0541992-6.0166016,0  c-0.5522461,0.0146484-0.987793,0.4741211-0.9726563,1.0263672C28.0258789,25.7446289,28.4868164,26.1948242,29.0371094,26.1645508z  "/><path d="M14.6225586,27.6708984c0.0664063,0,0.1333008-0.0063477,0.2006836-0.0200195  c1.7739258-0.3623047,3.7270508-0.6669922,5.8051758-0.90625c0.5488281-0.0634766,0.9423828-0.5595703,0.8793945-1.1079102  c-0.0634766-0.5488281-0.5693359-0.9448242-1.1079102-0.8793945c-2.1357422,0.2460938-4.1459961,0.5605469-5.9760742,0.9335938  c-0.5415039,0.1103516-0.890625,0.6386719-0.7802734,1.1796875C13.7402344,27.3447266,14.1572266,27.6708984,14.6225586,27.6708984z  "/><text x="0" y="79" fill="#000000" font-size="5px" font-weight="bold" font-family="'Helvetica Neue', Helvetica, Arial-Unicode, Arial, Sans-serif">Created by Anna Riana</text><text x="0" y="84" fill="#000000" font-size="5px" font-weight="bold" font-family="'Helvetica Neue', Helvetica, Arial-Unicode, Arial, Sans-serif">from the Noun Project</text></svg>