<svg xmlns="http://www.w3.org/2000/svg" xmlns:xlink="http://www.w3.org/1999/xlink" version="1.1" x="0px" y="0px" viewBox="0 0 32 40" style="enable-background:new 0 0 32 32;" xml:space="preserve"><path d="M1,12.155c0-1.103,0.897-2,2-2H24.17l-0.583-0.583c-0.378-0.378-0.586-0.88-0.586-1.414s0.208-1.036,0.586-1.414  c0.779-0.78,2.049-0.78,2.828,0l3.998,3.998C30.792,11.118,31,11.62,31,12.154c0,0.266-0.052,0.524-0.154,0.77  c-0.309,0.746-1.034,1.231-1.847,1.231H3C1.897,14.155,1,13.258,1,12.155z"/><path d="M1,19.844c0-0.266,0.052-0.524,0.153-0.768C1.461,18.329,2.187,17.844,3,17.844h26c1.103,0,2,0.897,2,2s-0.897,2-2,2H7.829  l0.583,0.583c0.378,0.378,0.586,0.88,0.586,1.414s-0.208,1.036-0.586,1.414s-0.88,0.586-1.414,0.586s-1.036-0.208-1.414-0.586  l-3.998-3.997C1.208,20.881,1,20.379,1,19.844z"/><text x="0" y="47" fill="#000000" font-size="5px" font-weight="bold" font-family="'Helvetica Neue', Helvetica, Arial-Unicode, Arial, Sans-serif">Created by Athok</text><text x="0" y="52" fill="#000000" font-size="5px" font-weight="bold" font-family="'Helvetica Neue', Helvetica, Arial-Unicode, Arial, Sans-serif">from the Noun Project</text></svg>