<svg xmlns="http://www.w3.org/2000/svg" xmlns:xlink="http://www.w3.org/1999/xlink" version="1.1" x="0px" y="0px" viewBox="7.5 7.5 50 62.5" enable-background="new 7.5 7.5 50 50" xml:space="preserve"><path d="M47.835,33.808L36.094,13.675c0.205-0.468,0.324-0.982,0.324-1.525c0-2.094-1.703-3.797-3.797-3.797  c-2.095,0-3.799,1.703-3.799,3.797c0,0.51,0.104,0.995,0.287,1.439l-9.954,9.66c-0.51-0.255-1.077-0.412-1.686-0.412  c-2.094,0-3.798,1.704-3.798,3.798c0,1.981,1.529,3.594,3.465,3.765l9.395,19.892c-0.62,0.676-1.008,1.568-1.008,2.556  c0,2.095,1.704,3.799,3.799,3.799c2.094,0,3.797-1.704,3.797-3.799c0-0.64-0.174-1.233-0.454-1.763l12.172-10.836  c0.688,0.693,1.641,1.124,2.692,1.124c2.094,0,3.798-1.704,3.798-3.798C51.328,35.585,49.784,33.966,47.835,33.808z M20.642,28.714  l8.28,2.361c-0.061,0.27-0.099,0.547-0.099,0.835c0,1.884,1.383,3.44,3.185,3.735l-3.092,13.445  c-0.579,0.063-1.118,0.247-1.589,0.54l-9.104-19.273C19.232,30.153,20.095,29.546,20.642,28.714z M44.72,35.044l-8.354-2.617  c0.024-0.17,0.053-0.34,0.053-0.517c0-1.923-1.441-3.5-3.297-3.748V15.898c0.943-0.126,1.771-0.594,2.364-1.282L46.715,33.87  C45.928,34.043,45.24,34.466,44.72,35.044z M32.121,15.898v12.264c-1.236,0.165-2.275,0.918-2.839,1.976l-8.214-2.343  c0.119-0.368,0.2-0.753,0.2-1.16c0-1.119-0.496-2.116-1.268-2.812l9.636-9.352C30.234,15.238,31.112,15.764,32.121,15.898z   M29.937,49.112l3.091-13.445c1.388-0.151,2.558-1.034,3.086-2.271l8.02,2.513c-0.249,0.505-0.401,1.065-0.401,1.666  c0,0.682,0.195,1.313,0.511,1.866l-12.155,10.82C31.528,49.663,30.781,49.251,29.937,49.112z"/><text x="7.5" y="72.5" fill="#000000" font-size="5px" font-weight="bold" font-family="'Helvetica Neue', Helvetica, Arial-Unicode, Arial, Sans-serif">Created by Abd Majd</text><text x="7.5" y="77.5" fill="#000000" font-size="5px" font-weight="bold" font-family="'Helvetica Neue', Helvetica, Arial-Unicode, Arial, Sans-serif">from the Noun Project</text></svg>