<svg xmlns="http://www.w3.org/2000/svg" version="1.1" viewBox="-5.0 -10.0 110.0 135.0">
 <g fill-rule="evenodd">
  <path d="m40.906 10.391c-0.19141-0.78906-0.82422-1.3945-1.6211-1.5508-3.4453-0.67578-6.9844-0.67578-10.43 0-0.79688 0.15625-1.4297 0.76172-1.6211 1.5508l-1.2266 5.0547c-1.8633 0.75391-3.6133 1.7656-5.1992 3.0039l-4.9883-1.4648c-0.78125-0.23047-1.6211 0.015625-2.1562 0.62891-2.3086 2.6445-4.0781 5.7109-5.2148 9.0312-0.26172 0.76953-0.054688 1.6211 0.53516 2.1836l3.7617 3.5898c-0.27734 1.9883-0.27734 4.0117 0 6.0039 0-0.003906-3.7617 3.5859-3.7617 3.5859-0.58984 0.5625-0.79688 1.4141-0.53516 2.1836 1.1367 3.3203 2.9062 6.3867 5.2148 9.0312 0.53516 0.61328 1.375 0.85938 2.1562 0.62891l4.9883-1.4648c1.582 1.2383 3.332 2.2461 5.1992 3.0039 0 0 1.2266 5.0547 1.2266 5.0547 0.19141 0.78906 0.82422 1.3945 1.6211 1.5508 3.4453 0.67578 6.9844 0.67578 10.43 0 0.79688-0.15625 1.4297-0.76172 1.6211-1.5508l1.2266-5.0547c1.8633-0.75391 3.6133-1.7656 5.1992-3.0039l4.9883 1.4648c0.78125 0.23047 1.6211-0.015624 2.1562-0.62891 2.3086-2.6445 4.0781-5.7109 5.2148-9.0312 0.26562-0.76953 0.054688-1.6211-0.53516-2.1836l-3.7617-3.5898c0.27734-1.9883 0.27734-4.0117 0-6.0039 0 0.003907 3.7617-3.5859 3.7617-3.5859 0.58984-0.5625 0.79688-1.4141 0.53516-2.1836-1.1367-3.3203-2.9062-6.3867-5.2148-9.0312-0.53516-0.61328-1.375-0.85938-2.1562-0.62891l-4.9883 1.4648c-1.582-1.2383-3.332-2.2461-5.1992-3.0039l-1.2266-5.0547zm-6.8359 14.215c-5.9648 0-10.809 4.8438-10.809 10.809 0 5.9648 4.8438 10.809 10.809 10.809 5.9648 0 10.809-4.8438 10.809-10.809 0-5.9648-4.8438-10.809-10.809-10.809z"/>
  <path d="m77.539 51.941c-0.19141-0.78906-0.82422-1.3945-1.6211-1.5508-2.6484-0.51953-5.3711-0.51953-8.0195 0-0.79688 0.15625-1.4336 0.76172-1.625 1.5508l-0.85938 3.5352c-1.2656 0.53516-2.4609 1.2266-3.5586 2.0547l-3.4883-1.0234c-0.77734-0.23047-1.6211 0.015626-2.1562 0.62891-1.7734 2.0352-3.1367 4.3945-4.0117 6.9492-0.26172 0.76953-0.054688 1.6211 0.53516 2.1797l2.6328 2.5117c-0.17188 1.3633-0.17188 2.7461 0 4.1133-0.003907 0-2.6328 2.5117-2.6328 2.5117-0.58984 0.55859-0.79688 1.4141-0.53516 2.1797 0.875 2.5547 2.2344 4.9141 4.0117 6.9492 0.53516 0.61328 1.3789 0.85938 2.1562 0.62891l3.4883-1.0234c1.0977 0.82812 2.293 1.5195 3.5625 2.0547-0.003907 0 0.85547 3.5352 0.85547 3.5352 0.19141 0.78906 0.82812 1.3945 1.625 1.5508 2.6484 0.51953 5.3711 0.51953 8.0195 0 0.79688-0.15625 1.4297-0.76172 1.6211-1.5508l0.85938-3.5352c1.2656-0.53516 2.4648-1.2266 3.5625-2.0547l3.4883 1.0234c0.78125 0.23047 1.6211-0.015625 2.1562-0.62891 1.7734-2.0352 3.1367-4.3945 4.0117-6.9492 0.26172-0.76953 0.054687-1.6211-0.53516-2.1797l-2.6328-2.5117c0.17188-1.3633 0.17188-2.7461 0-4.1133l2.6328-2.5117c0.58594-0.55859 0.79688-1.4141 0.53516-2.1797-0.875-2.5547-2.2383-4.9141-4.0117-6.9492-0.53516-0.61328-1.375-0.85938-2.1562-0.62891l-3.4883 1.0234c-1.0977-0.82812-2.2969-1.5195-3.5625-2.0547l-0.85938-3.5352zm-5.6328 10.266c-4.7617 0-8.6289 3.8633-8.6289 8.6289 0 4.7617 3.8672 8.6289 8.6289 8.6289s8.6289-3.8633 8.6289-8.6289c0-4.7617-3.8672-8.6289-8.6289-8.6289z"/>
 </g>
<text x="0.0" y="117.5" font-size="5.0" font-weight="bold" font-family="Arbeit Regular, Helvetica, Arial-Unicode, Arial, Sans-serif" fill="#000000">Created by erix subyarko</text><text x="0.0" y="122.5" font-size="5.0" font-weight="bold" font-family="Arbeit Regular, Helvetica, Arial-Unicode, Arial, Sans-serif" fill="#000000">from Noun Project</text></svg>