<svg xmlns="http://www.w3.org/2000/svg" xmlns:xlink="http://www.w3.org/1999/xlink" version="1.1" x="0px" y="0px" viewBox="0 0 100 125" style="enable-background:new 0 0 100 100;" xml:space="preserve"><path d="M78.1,62.1H44v-8.5c0-0.7-0.4-1.3-1-1.6c-0.7-0.3-1.4-0.1-1.8,0.3L20.9,69.6c-0.4,0.3-0.7,0.9-0.7,1.3c0,0.6,0.3,1,0.7,1.4  l20.3,17.3c0.3,0.3,0.7,0.4,1.1,0.4c0.3,0,0.4-0.1,0.7-0.1c0.6-0.3,1-1,1-1.7v-8.2h34c1,0,1.7-0.9,1.7-1.8V63.8  C79.8,62.8,79.1,62.1,78.1,62.1z"/><path d="M22.1,38.1H56v8.4c0,0.6,0.4,1.3,1,1.6c0.3,0.1,0.6,0.1,0.9,0.1c0.4,0,0.7-0.1,1.1-0.4l20.3-17.3c0.4-0.3,0.6-0.9,0.6-1.3  c0-0.6-0.1-1.1-0.6-1.4L58.9,10.4c-0.6-0.4-1.3-0.6-2-0.3c-0.6,0.3-1,1-1,1.7v8.4H22.1c-1,0-1.8,0.9-1.8,1.8v14.3  C20.2,37.2,21.1,38.1,22.1,38.1z"/><text x="0" y="115" fill="#000000" font-size="5px" font-weight="bold" font-family="'Helvetica Neue', Helvetica, Arial-Unicode, Arial, Sans-serif">Created by ARIPATUT DASUKI</text><text x="0" y="120" fill="#000000" font-size="5px" font-weight="bold" font-family="'Helvetica Neue', Helvetica, Arial-Unicode, Arial, Sans-serif">from the Noun Project</text></svg>