<svg xmlns="http://www.w3.org/2000/svg" version="1.1" viewBox="-5.0 -10.0 110.0 135.0">
 <path d="m89.898 82.801v-0.30078l-37.297-64.5c-0.60156-1-1.6016-1.6992-2.6992-2-1.1016-0.30078-2.3008-0.19922-3.3008 0.39844-1.1016 0.60156-1.8008 1.6016-2.1016 2.6992-0.30078 1.1016-0.10156 2.3008 0.39844 3.3984l18.398 31.898c-6.5977 5.1055-10.898 12.605-11.996 20.906h-36.902c-2.3984 0-4.3984 2-4.3984 4.3984 0 2.3984 2 4.3984 4.3984 4.3984h74.398c0.19922 0 0.39844 0 0.60156-0.10156 0 0 0-0.10156 0.10156-0.10156 0.10156-0.10156 0.19922-0.19922 0.19922-0.30078 0.10156-0.10156 0.10156-0.30078 0.19922-0.39844v-0.10156c0.10156-0.09375 0-0.19531 0-0.29297zm-29.598-7.5c1-5.1016 3.6016-9.6992 7.5-13l7.6016 13z"/>
<text x="0.0" y="117.5" font-size="5.0" font-weight="bold" font-family="Arbeit Regular, Helvetica, Arial-Unicode, Arial, Sans-serif" fill="#000000">Created by ARI NOFIANA</text><text x="0.0" y="122.5" font-size="5.0" font-weight="bold" font-family="Arbeit Regular, Helvetica, Arial-Unicode, Arial, Sans-serif" fill="#000000">from Noun Project</text></svg>