<svg xmlns:inkscape="http://www.inkscape.org/namespaces/inkscape" xmlns:sodipodi="http://sodipodi.sourceforge.net/DTD/sodipodi-0.dtd" xmlns="http://www.w3.org/2000/svg" xmlns:svg="http://www.w3.org/2000/svg" viewBox="0 0 10.58333 13.229175" version="1.1" x="0px" y="0px"><g transform="translate(-162.88906,-170.64206)"><path style="color:#000000;paint-order:stroke fill markers;" d="m 167.13281,174.22852 c -0.62171,0.008 -1.22364,0.33729 -1.55664,0.91406 l -1.11523,1.92969 c -0.50325,0.87165 -0.20367,1.99088 0.66797,2.49414 l 0.16211,0.0918 c 0.87164,0.50325 1.98893,0.2037 2.49218,-0.66797 l 1.11524,-1.92968 c 0.38473,-0.66638 0.30383,-1.47721 -0.14844,-2.04688 a 0.2645835,0.2645835 0 0 0 -0.37305,-0.043 0.2645835,0.2645835 0 0 0 -0.043,0.3711 c 0.32035,0.40349 0.38164,0.97478 0.10547,1.45312 l -1.11523,1.93164 c -0.36125,0.62572 -1.14384,0.83391 -1.76953,0.47266 l -0.16016,-0.0918 c -0.62568,-0.36125 -0.83586,-1.14383 -0.47461,-1.76953 l 1.11524,-1.93164 c 0.23904,-0.41403 0.66266,-0.64269 1.10351,-0.64844 a 0.2645835,0.2645835 0 0 0 0.26172,-0.26953 0.2645835,0.2645835 0 0 0 -0.26758,-0.25976 z" fill="#000000" stroke="none"/><path style="color:#000000;paint-order:stroke fill markers;" d="m 169.6875,172.02734 c -0.4514,0.12096 -0.85775,0.41379 -1.10938,0.84961 l -1.11523,1.93164 c -0.38473,0.66638 -0.30187,1.47526 0.15039,2.04493 a 0.2645835,0.2645835 0 0 0 0.37109,0.043 0.2645835,0.2645835 0 0 0 0.043,-0.37109 c -0.32033,-0.4035 -0.38163,-0.97478 -0.10547,-1.45312 l 1.11524,-1.92969 c 0.36125,-0.6257 1.14384,-0.83586 1.76953,-0.47461 l 0.16016,0.0918 c 0.62569,0.36125 0.83585,1.14578 0.47461,1.77148 l -1.11524,1.92969 c -0.23903,0.41402 -0.66267,0.64268 -1.10351,0.64843 a 0.2645835,0.2645835 0 0 0 -0.26172,0.26954 0.2645835,0.2645835 0 0 0 0.26758,0.25976 c 0.62171,-0.008 1.22365,-0.33533 1.55664,-0.91211 l 1.11523,-1.93164 c 0.50324,-0.87165 0.20367,-1.98892 -0.66797,-2.49219 l -0.16211,-0.0937 c -0.43582,-0.25162 -0.93141,-0.30259 -1.38281,-0.18164 z" fill="#000000" stroke="none"/></g><text x="0" y="25.58334" fill="#000000" font-size="5px" font-weight="bold" font-family="'Helvetica Neue', Helvetica, Arial-Unicode, Arial, Sans-serif">Created by Meko</text><text x="0" y="30.58334" fill="#000000" font-size="5px" font-weight="bold" font-family="'Helvetica Neue', Helvetica, Arial-Unicode, Arial, Sans-serif">from the Noun Project</text></svg>