<svg xmlns="http://www.w3.org/2000/svg" xmlns:xlink="http://www.w3.org/1999/xlink" version="1.1" x="0px" y="0px" viewBox="0 0 32 40" enable-background="new 0 0 32 32" xml:space="preserve"><g><g><path d="M21.93,14H2c-0.552,0-1-0.448-1-1s0.448-1,1-1h19.93c1.122,0,2.07-0.916,2.07-2c0-1.122-0.836-2-1.904-2    c-0.552,0-1-0.448-1-1s0.448-1,1-1C24.285,6,26,7.757,26,10C26,12.206,24.174,14,21.93,14z"/></g><g><path d="M27.096,23c-0.552,0-1-0.447-1-1s0.448-1,1-1C28.164,21,29,20.121,29,19c0-1.084-0.948-2-2.07-2H4c-0.552,0-1-0.448-1-1    s0.448-1,1-1h22.93c2.244,0,4.07,1.794,4.07,4C31,21.243,29.285,23,27.096,23z"/></g><g><path d="M16.096,26c-0.552,0-1-0.447-1-1s0.448-1,1-1C17.164,24,18,23.121,18,22c0-1.084-0.948-2-2.07-2H6c-0.552,0-1-0.447-1-1    s0.448-1,1-1h9.93c2.244,0,4.07,1.794,4.07,4C20,24.243,18.285,26,16.096,26z"/></g></g><text x="0" y="47" fill="#000000" font-size="5px" font-weight="bold" font-family="'Helvetica Neue', Helvetica, Arial-Unicode, Arial, Sans-serif">Created by Celcius Creative</text><text x="0" y="52" fill="#000000" font-size="5px" font-weight="bold" font-family="'Helvetica Neue', Helvetica, Arial-Unicode, Arial, Sans-serif">from the Noun Project</text></svg>