<svg xmlns="http://www.w3.org/2000/svg" xmlns:xlink="http://www.w3.org/1999/xlink" version="1.1" x="0px" y="0px" viewBox="0 0 64 80" style="enable-background:new 0 0 64 64;" xml:space="preserve"><g><path d="M1,8c0.552,0,1-0.448,1-1V3c0-0.551,0.449-1,1-1h4c0.552,0,1-0.448,1-1S7.552,0,7,0H3C1.346,0,0,1.346,0,3v4   C0,7.552,0.448,8,1,8z"/><path d="M7,62H3c-0.551,0-1-0.449-1-1v-4c0-0.552-0.448-1-1-1c-0.552,0-1,0.448-1,1v4c0,1.654,1.346,3,3,3h4c0.552,0,1-0.448,1-1   S7.552,62,7,62z"/><path d="M61,0h-4c-0.553,0-1,0.448-1,1s0.447,1,1,1h4c0.552,0,1,0.449,1,1v4c0,0.552,0.447,1,1,1c0.553,0,1-0.448,1-1V3   C64,1.346,62.654,0,61,0z"/><path d="M63,56c-0.553,0-1,0.448-1,1v4c0,0.551-0.448,1-1,1h-4c-0.553,0-1,0.448-1,1s0.447,1,1,1h4c1.654,0,3-1.346,3-3v-4   C64,56.448,63.553,56,63,56z"/><path d="M60,28c-1.046,0-1.991,0.413-2.705,1.072L35.782,15.243C35.912,14.849,36,14.436,36,14c0-2.206-1.794-4-4-4   c-2.206,0-4,1.794-4,4c0,0.436,0.088,0.849,0.217,1.243L6.705,29.072C5.992,28.413,5.046,28,4,28c-2.206,0-4,1.794-4,4s1.794,4,4,4   c1.046,0,1.992-0.413,2.705-1.072l21.512,13.83C28.088,49.151,28,49.563,28,50c0,2.206,1.794,4,4,4c2.206,0,4-1.794,4-4   c0-0.437-0.088-0.849-0.218-1.243l21.513-13.829C58.009,35.587,58.954,36,60,36c2.206,0,4-1.794,4-4S62.206,28,60,28z    M50.667,36.811L43.184,32l7.483-4.811l5.551,3.568C56.088,31.151,56,31.563,56,32s0.088,0.849,0.218,1.243L50.667,36.811z    M41.333,42.811L33.85,38l7.484-4.811L48.817,38L41.333,42.811z M32,46c-1.046,0-1.992,0.413-2.705,1.072L24.516,44L32,39.189   L39.483,44l-4.778,3.072C33.991,46.413,33.046,46,32,46z M15.182,38l7.484-4.811L30.15,38l-7.484,4.812L15.182,38z M7.782,33.243   C7.912,32.85,8,32.437,8,32s-0.088-0.85-0.218-1.243l5.551-3.568L20.817,32l-7.484,4.811L7.782,33.243z M22.666,21.188L30.15,26   l-7.484,4.811L15.182,26L22.666,21.188z M32,18c1.046,0,1.991-0.413,2.705-1.072L39.483,20L32,24.811L24.516,20l4.779-3.072   C30.008,17.587,30.954,18,32,18z M48.817,26l-7.483,4.811L33.85,26l7.483-4.811L48.817,26z M39.484,32L32,36.812L24.516,32   L32,27.188L39.484,32z M32,12c1.102,0,2,0.897,2,2s-0.898,2-2,2c-1.103,0-2-0.897-2-2S30.897,12,32,12z M4,34c-1.103,0-2-0.897-2-2   s0.897-2,2-2s2,0.897,2,2S5.103,34,4,34z M32,52c-1.103,0-2-0.897-2-2s0.897-2,2-2c1.102,0,2,0.897,2,2S33.102,52,32,52z M60,34   c-0.701,0-1.317-0.365-1.674-0.913c-0.002-0.003-0.002-0.006-0.004-0.009c-0.001-0.002-0.002-0.002-0.003-0.003   C58.119,32.764,58,32.396,58,32c0-1.103,0.897-2,2-2c1.102,0,2,0.897,2,2S61.102,34,60,34z"/></g><text x="0" y="79" fill="#000000" font-size="5px" font-weight="bold" font-family="'Helvetica Neue', Helvetica, Arial-Unicode, Arial, Sans-serif">Created by Berkah Icon</text><text x="0" y="84" fill="#000000" font-size="5px" font-weight="bold" font-family="'Helvetica Neue', Helvetica, Arial-Unicode, Arial, Sans-serif">from the Noun Project</text></svg>