<svg xmlns:x="http://ns.adobe.com/Extensibility/1.0/" xmlns:i="http://ns.adobe.com/AdobeIllustrator/10.0/" xmlns:graph="http://ns.adobe.com/Graphs/1.0/" xmlns="http://www.w3.org/2000/svg" xmlns:xlink="http://www.w3.org/1999/xlink" xmlns:a="http://ns.adobe.com/AdobeSVGViewerExtensions/3.0/" version="1.1" x="0px" y="0px" viewBox="0 0 100 125" style="enable-background:new 0 0 100 100;" xml:space="preserve"><style type="text/css">

	.st0{fill-rule:evenodd;clip-rule:evenodd;}

</style><path class="st0" d="M5.775,50c0-24.387,19.844-44.227,44.227-44.227c9.482,0,18.539,2.982,26.064,8.496l-6.254,0.045  c-1.457,0.012-2.635,1.201-2.617,2.656c0.008,1.451,1.186,2.617,2.635,2.617c0.008,0,0.016,0,0.023,0l13.717-0.104  c0.785-0.006,1.529-0.365,2.025-0.982c0.498-0.615,0.697-1.42,0.529-2.193L83.322,2.881c-0.297-1.426-1.697-2.34-3.123-2.041  s-2.338,1.695-2.041,3.121l1.313,6.264C70.982,3.916,60.732,0.5,50.002,0.5C36.781,0.5,24.354,5.65,15,14.998  C5.648,24.348,0.498,36.779,0.498,50c0,7.791,1.762,15.25,5.238,22.172c0.465,0.922,1.393,1.455,2.361,1.455  c0.393,0,0.801-0.09,1.178-0.281c1.305-0.652,1.826-2.236,1.178-3.537C7.346,63.627,5.775,56.961,5.775,50L5.775,50z M99.502,50.641  c-0.164,12.982-5.297,25.162-14.498,34.361C75.658,94.352,63.223,99.5,50.002,99.5l0,0c-10.738,0-20.988-3.414-29.467-9.721  l1.313,6.262c0.297,1.424-0.617,2.82-2.043,3.119c-0.184,0.039-0.359,0.057-0.543,0.057c-1.219,0-2.314-0.854-2.58-2.098  l-2.803-13.426c-0.158-0.775,0.033-1.58,0.529-2.195s1.24-0.977,2.033-0.98l13.719-0.105c0,0,0.008,0,0.016,0  c1.449,0,2.625,1.168,2.635,2.617c0.016,1.455-1.162,2.645-2.619,2.656l-6.262,0.047c7.527,5.514,16.584,8.496,26.072,8.496  c11.811,0,22.918-4.602,31.277-12.955C89.633,72.92,94.229,61.814,94.229,50c0-6.961-1.57-13.625-4.676-19.807  c-0.648-1.301-0.121-2.887,1.176-3.539c1.299-0.654,2.883-0.127,3.539,1.174c3.381,6.732,5.141,13.977,5.234,21.537V50.641z"/><text x="0" y="115" fill="#000000" font-size="5px" font-weight="bold" font-family="'Helvetica Neue', Helvetica, Arial-Unicode, Arial, Sans-serif">Created by SITI NURHAYATI</text><text x="0" y="120" fill="#000000" font-size="5px" font-weight="bold" font-family="'Helvetica Neue', Helvetica, Arial-Unicode, Arial, Sans-serif">from the Noun Project</text></svg>