<svg xmlns="http://www.w3.org/2000/svg" data-name="Layer 1" viewBox="0 0 100 125" x="0px" y="0px"><defs><style>
      .cls-1 {
        stroke-width: 0px;
      }
    </style></defs><path class="cls-1" d="m20,50c0,1.65,1.35,3,3,3h31.76l-9.88,9.88c-.57.57-.88,1.32-.88,2.12s.31,1.55.88,2.12c1.13,1.13,3.11,1.13,4.24,0l9.88-9.88c1.93-1.93,3-4.51,3-7.24s-1.07-5.31-3-7.24l-9.88-9.88c-1.13-1.13-3.11-1.13-4.24,0-.57.57-.88,1.32-.88,2.12s.31,1.55.88,2.12l9.88,9.88h-31.76c-1.65,0-3,1.35-3,3Z"/><path class="cls-1" d="m66,78c0,1.65,1.35,3,3,3s3-1.35,3-3c0-6.2,1.75-9.27,3.6-12.51,2.06-3.61,4.4-7.69,4.4-15.49s-2.33-11.88-4.4-15.49c-1.85-3.25-3.6-6.31-3.6-12.51,0-1.65-1.35-3-3-3s-3,1.35-3,3c0,7.8,2.33,11.88,4.4,15.49,1.85,3.25,3.6,6.31,3.6,12.51s-1.75,9.27-3.6,12.51c-2.06,3.61-4.4,7.69-4.4,15.49Z"/><text x="0" y="115" fill="#000000" font-size="5px" font-weight="bold" font-family="'Helvetica Neue', Helvetica, Arial-Unicode, Arial, Sans-serif">Created by Gregor Cresnar</text><text x="0" y="120" fill="#000000" font-size="5px" font-weight="bold" font-family="'Helvetica Neue', Helvetica, Arial-Unicode, Arial, Sans-serif">from the Noun Project</text></svg>