<svg xmlns="http://www.w3.org/2000/svg" version="1.1" viewBox="-5.0 -10.0 110.0 135.0">
 <path d="m24.309 28.336 6.8203 2.2578v2.168c0 0.43359 0.17969 0.84766 0.49219 1.1406 0.31641 0.29688 0.74219 0.44531 1.1719 0.41797l8.2266-0.54687v-21.801l-8.2266-0.55078c-0.42969-0.027344-0.85547 0.12109-1.1719 0.41797s-0.49219 0.71094-0.49219 1.1406v2.168l-6.8203 2.2578v-9.8516c0-0.76172-0.30469-1.4922-0.83984-2.0312-0.53906-0.53906-1.2734-0.84375-2.0352-0.84375h-2.2578c-0.76562 0-1.4961 0.30469-2.0352 0.84375-0.53906 0.53906-0.84375 1.2695-0.84375 2.0312v86.188c0 0.86328 0.69922 1.5625 1.5625 1.5625h4.8867c0.86328 0 1.5625-0.69922 1.5625-1.5625v-65.414zm26.602-15.699v20.48l-6.7617 0.44922v-21.383zm9.8906 0.66016v19.164l-6.7656 0.44922v-20.066zm9.8867 0.66016v17.844l-6.7617 0.44922v-18.746zm3.125 0.20703v17.43l8.4297-0.5625c0.82031-0.054688 1.4609-0.73438 1.4609-1.5586v-13.184c0-0.82031-0.63672-1.5039-1.4609-1.5586l-8.4297-0.5625zm-49.504 6.5469v4.3359l6.8203 2.2617v-8.8594z" fill-rule="evenodd"/>
<text x="0.0" y="117.5" font-size="5.0" font-weight="bold" font-family="Arbeit Regular, Helvetica, Arial-Unicode, Arial, Sans-serif" fill="#000000">Created by Asiah</text><text x="0.0" y="122.5" font-size="5.0" font-weight="bold" font-family="Arbeit Regular, Helvetica, Arial-Unicode, Arial, Sans-serif" fill="#000000">from Noun Project</text></svg>