<svg xmlns="http://www.w3.org/2000/svg" version="1.1" viewBox="-5.0 -10.0 110.0 135.0">
 <path d="m50 3.125c-17.031 0-30.891 13.844-30.891 30.859 0 15.406 11.391 28.375 26.406 30.562l-3.7656 6.5312c-0.45312 0.78125-0.45312 1.75 0 2.5312 0.45312 0.79688 1.2969 1.2812 2.2031 1.2812h4.4844v20.422c0 0.85938 0.70312 1.5625 1.5625 1.5625s1.5625-0.70312 1.5625-1.5625v-20.422h4.4844c0.90625 0 1.75-0.48438 2.2031-1.2812 0.45312-0.78125 0.45312-1.75 0-2.5312l-3.7656-6.5156c15-2.1719 26.406-15.156 26.406-30.578 0-17.016-13.859-30.859-30.891-30.859zm0 10.938c-11 0-19.953 8.9375-19.953 19.922 0 0.875-0.70312 1.5625-1.5625 1.5625s-1.5625-0.6875-1.5625-1.5625c0-12.703 10.344-23.047 23.078-23.047 0.85938 0 1.5625 0.70312 1.5625 1.5625s-0.70312 1.5625-1.5625 1.5625z"/>
<text x="0.0" y="117.5" font-size="5.0" font-weight="bold" font-family="Arbeit Regular, Helvetica, Arial-Unicode, Arial, Sans-serif" fill="#000000">Created by blue</text><text x="0.0" y="122.5" font-size="5.0" font-weight="bold" font-family="Arbeit Regular, Helvetica, Arial-Unicode, Arial, Sans-serif" fill="#000000">from Noun Project</text></svg>