<svg xmlns="http://www.w3.org/2000/svg" xmlns:xlink="http://www.w3.org/1999/xlink" xmlns:serif="http://www.serif.com/" viewBox="0 0 512 640" version="1.1" xml:space="preserve" style="" x="0px" y="0px" fill-rule="evenodd" clip-rule="evenodd" stroke-linejoin="round" stroke-miterlimit="2"><g transform="matrix(1,0,0,1,-1124,-1686)"><g><path d="M1364.66,1961.53C1302.44,1961.53 1251.92,2012.04 1251.92,2074.26C1251.92,2136.49 1302.44,2187 1364.66,2187C1426.88,2187 1477.39,2136.49 1477.39,2074.26C1477.39,2012.04 1426.88,1961.53 1364.66,1961.53ZM1364.66,1971.53C1421.36,1971.53 1467.39,2017.56 1467.39,2074.26C1467.39,2130.97 1421.36,2177 1364.66,2177C1307.96,2177 1261.92,2130.97 1261.92,2074.26C1261.92,2017.56 1307.96,1971.53 1364.66,1971.53ZM1346.07,2138.5L1346.07,2146.4C1346.07,2156.66 1354.4,2164.99 1364.66,2164.99C1374.92,2164.99 1383.25,2156.66 1383.25,2146.4L1383.25,2138.5C1412.8,2130.34 1434.53,2103.25 1434.53,2071.13C1434.53,2032.56 1403.22,2001.25 1364.66,2001.25C1326.09,2001.25 1294.78,2032.56 1294.78,2071.13C1294.78,2103.25 1316.51,2130.34 1346.07,2138.5ZM1391.55,2017.63C1383.46,2013.55 1374.32,2011.25 1364.66,2011.25C1354.99,2011.25 1345.86,2013.55 1337.77,2017.63C1343.43,2020.64 1347.55,2025.72 1350.43,2031.81C1354.62,2040.65 1356.07,2051.72 1356.07,2060.67L1356.07,2134.48C1356.07,2134.53 1356.07,2134.59 1356.07,2134.64L1356.07,2146.4C1356.07,2151.14 1359.92,2154.99 1364.66,2154.99C1369.4,2154.99 1373.25,2151.14 1373.25,2146.4L1373.25,2134.64C1373.25,2134.59 1373.25,2134.53 1373.25,2134.48L1373.25,2060.67C1373.25,2051.72 1374.7,2040.65 1378.88,2031.81C1381.77,2025.72 1385.88,2020.64 1391.55,2017.63ZM1326.84,2024.72C1313.38,2035.71 1304.78,2052.42 1304.78,2071.13C1304.78,2097.69 1322.11,2120.23 1346.07,2128.05L1346.07,2060.67C1346.07,2053.05 1344.95,2043.61 1341.39,2036.09C1338.55,2030.09 1334.04,2025.35 1326.84,2024.72ZM1402.48,2024.72C1395.27,2025.35 1390.77,2030.09 1387.92,2036.09C1384.36,2043.61 1383.25,2053.05 1383.25,2060.67L1383.25,2128.05C1407.2,2120.23 1424.53,2097.69 1424.53,2071.13C1424.53,2052.42 1415.93,2035.71 1402.48,2024.72ZM1232.43,2043.27L1214.61,2059.01C1214.61,2059.01 1224.6,2032.48 1224.6,2032.48C1225.33,2030.56 1224.8,2028.38 1223.27,2027.01C1221.74,2025.63 1219.53,2025.33 1217.69,2026.25L1191.25,2039.46C1191.25,2039.46 1208.85,2020.02 1208.85,2020.02C1210.29,2018.43 1210.56,2016.1 1209.51,2014.23C1208.47,2012.36 1206.35,2011.36 1204.24,2011.75L1179.65,2016.28C1179.65,2016.28 1207.57,2001.9 1207.57,2001.9C1209.33,2001 1210.39,1999.14 1210.27,1997.17C1210.16,1995.2 1208.9,1993.48 1207.05,1992.78L1181.07,1982.98C1181.07,1982.98 1200.08,1979.69 1200.08,1979.69C1202.8,1979.23 1204.63,1976.63 1204.16,1973.92C1203.69,1971.2 1201.1,1969.37 1198.38,1969.84L1161.27,1976.25C1159.05,1976.64 1157.36,1978.46 1157.15,1980.71C1156.93,1982.95 1158.25,1985.06 1160.36,1985.86L1192.99,1998.16C1192.99,1998.16 1144.95,2022.88 1144.95,2022.88C1142.75,2024.02 1141.71,2026.6 1142.51,2028.94C1143.31,2031.29 1145.71,2032.69 1148.15,2032.25L1191.53,2024.26C1191.53,2024.26 1165.98,2052.47 1165.98,2052.47C1164.36,2054.26 1164.25,2056.94 1165.7,2058.85C1167.15,2060.77 1169.77,2061.38 1171.92,2060.3L1210.75,2040.89C1210.75,2040.89 1198.17,2074.31 1198.17,2074.31C1197.36,2076.46 1198.12,2078.88 1200.01,2080.19C1201.9,2081.49 1204.43,2081.34 1206.15,2079.82L1239.06,2050.77C1241.12,2048.94 1241.32,2045.78 1239.49,2043.71C1237.67,2041.64 1234.5,2041.44 1232.43,2043.27ZM1518.32,1945.57L1541.43,1951.17C1541.43,1951.17 1513.96,1958.17 1513.96,1958.17C1511.97,1958.68 1510.49,1960.36 1510.24,1962.4C1509.98,1964.44 1511.01,1966.43 1512.81,1967.41L1538.79,1981.51C1538.79,1981.51 1512.77,1978.22 1512.77,1978.22C1510.64,1977.95 1508.58,1979.07 1507.64,1980.99C1506.7,1982.92 1507.1,1985.23 1508.63,1986.74L1526.43,2004.3C1526.43,2004.3 1498.65,1989.64 1498.65,1989.64C1496.9,1988.72 1494.78,1988.92 1493.23,1990.14C1491.67,1991.36 1490.99,1993.38 1491.47,1995.3L1498.32,2022.21C1498.32,2022.21 1484.74,2008.5 1484.74,2008.5C1482.79,2006.54 1479.62,2006.53 1477.66,2008.47C1475.7,2010.41 1475.69,2013.58 1477.63,2015.54L1504.14,2042.29C1505.73,2043.89 1508.19,2044.23 1510.15,2043.12C1512.12,2042.01 1513.09,2039.72 1512.54,2037.54L1503.94,2003.74C1503.94,2003.74 1551.71,2028.96 1551.71,2028.96C1553.9,2030.12 1556.61,2029.49 1558.08,2027.49C1559.55,2025.49 1559.32,2022.72 1557.56,2020.98L1526.16,1990C1526.16,1990 1563.93,1994.78 1563.93,1994.78C1566.32,1995.08 1568.58,1993.64 1569.32,1991.35C1570.05,1989.06 1569.06,1986.57 1566.94,1985.42L1528.79,1964.71C1528.79,1964.71 1563.39,1955.88 1563.39,1955.88C1565.62,1955.32 1567.17,1953.31 1567.16,1951.01C1567.14,1948.71 1565.57,1946.72 1563.33,1946.18L1520.67,1935.85C1517.99,1935.2 1515.29,1936.85 1514.64,1939.53C1513.99,1942.22 1515.64,1944.92 1518.32,1945.57ZM1248.08,1969.9C1310.3,1969.9 1360.81,1919.38 1360.81,1857.16C1360.81,1794.94 1310.3,1744.43 1248.08,1744.43C1185.86,1744.43 1135.34,1794.94 1135.34,1857.16C1135.34,1919.38 1185.86,1969.9 1248.08,1969.9ZM1248.08,1959.9C1191.38,1959.9 1145.34,1913.87 1145.34,1857.16C1145.34,1800.46 1191.38,1754.43 1248.08,1754.43C1304.78,1754.43 1350.81,1800.46 1350.81,1857.16C1350.81,1913.87 1304.78,1959.9 1248.08,1959.9ZM1229.49,1792.93C1199.93,1801.08 1178.2,1828.17 1178.2,1860.3C1178.2,1898.86 1209.51,1930.17 1248.08,1930.17C1286.64,1930.17 1317.95,1898.86 1317.95,1860.3C1317.95,1828.17 1296.22,1801.08 1266.67,1792.93L1266.67,1785.03C1266.67,1774.77 1258.34,1766.44 1248.08,1766.44C1237.82,1766.44 1229.49,1774.77 1229.49,1785.03L1229.49,1792.93ZM1511.92,1922.47C1574.14,1922.47 1624.66,1871.96 1624.66,1809.74C1624.66,1747.52 1574.14,1697 1511.92,1697C1449.7,1697 1399.19,1747.52 1399.19,1809.74C1399.19,1871.96 1449.7,1922.47 1511.92,1922.47ZM1256.67,1796.79L1256.67,1785.03C1256.67,1780.29 1252.82,1776.44 1248.08,1776.44C1243.34,1776.44 1239.49,1780.29 1239.49,1785.03L1239.49,1796.79C1239.49,1796.84 1239.49,1796.89 1239.49,1796.95L1239.49,1870.75C1239.49,1879.71 1238.04,1890.78 1233.85,1899.62C1230.96,1905.71 1226.85,1910.79 1221.19,1913.8C1229.28,1917.88 1238.41,1920.17 1248.08,1920.17C1257.74,1920.17 1266.88,1917.88 1274.96,1913.8C1269.31,1910.79 1265.19,1905.71 1262.31,1899.62C1258.12,1890.78 1256.67,1879.71 1256.67,1870.75L1256.67,1796.95C1256.67,1796.89 1256.67,1796.84 1256.67,1796.79ZM1511.92,1912.47C1455.22,1912.47 1409.19,1866.44 1409.19,1809.74C1409.19,1753.03 1455.22,1707 1511.92,1707C1568.62,1707 1614.66,1753.03 1614.66,1809.74C1614.66,1866.44 1568.62,1912.47 1511.92,1912.47ZM1229.49,1803.37C1205.53,1811.2 1188.2,1833.74 1188.2,1860.3C1188.2,1879.01 1196.8,1895.72 1210.26,1906.7C1217.46,1906.08 1221.97,1901.34 1224.81,1895.34C1228.38,1887.82 1229.49,1878.37 1229.49,1870.75L1229.49,1803.37ZM1266.67,1803.37L1266.67,1870.75C1266.67,1878.37 1267.78,1887.82 1271.34,1895.34C1274.18,1901.34 1278.69,1906.08 1285.9,1906.7C1299.35,1895.72 1307.95,1879.01 1307.95,1860.3C1307.95,1833.74 1290.62,1811.2 1266.67,1803.37ZM1493.33,1745.5C1463.78,1753.66 1442.05,1780.75 1442.05,1812.87C1442.05,1851.44 1473.36,1882.75 1511.92,1882.75C1550.49,1882.75 1581.8,1851.44 1581.8,1812.87C1581.8,1780.75 1560.07,1753.66 1530.51,1745.5L1530.51,1737.6C1530.51,1727.34 1522.18,1719.01 1511.92,1719.01C1501.66,1719.01 1493.33,1727.34 1493.33,1737.6L1493.33,1745.5ZM1520.51,1749.36L1520.51,1737.6C1520.51,1732.86 1516.66,1729.01 1511.92,1729.01C1507.18,1729.01 1503.33,1732.86 1503.33,1737.6L1503.33,1749.36C1503.33,1749.41 1503.33,1749.47 1503.33,1749.52L1503.33,1823.33C1503.33,1832.28 1501.88,1843.35 1497.69,1852.19C1494.81,1858.28 1490.69,1863.36 1485.04,1866.37C1493.12,1870.45 1502.26,1872.75 1511.92,1872.75C1521.59,1872.75 1530.72,1870.45 1538.81,1866.37C1533.15,1863.36 1529.04,1858.28 1526.15,1852.19C1521.96,1843.35 1520.51,1832.28 1520.51,1823.33L1520.51,1749.52C1520.51,1749.47 1520.51,1749.41 1520.51,1749.36ZM1530.51,1755.94L1530.51,1823.33C1530.51,1830.95 1531.62,1840.39 1535.19,1847.91C1538.03,1853.91 1542.54,1858.65 1549.74,1859.28C1563.2,1848.29 1571.8,1831.58 1571.8,1812.87C1571.8,1786.31 1554.47,1763.77 1530.51,1755.94ZM1493.33,1755.94C1469.38,1763.77 1452.05,1786.31 1452.05,1812.87C1452.05,1831.58 1460.65,1848.29 1474.1,1859.28C1481.31,1858.65 1485.82,1853.91 1488.66,1847.91C1492.22,1840.39 1493.33,1830.95 1493.33,1823.33L1493.33,1755.94ZM1351.67,1778.18L1351.75,1750.74C1351.75,1750.74 1367.39,1774.21 1367.39,1774.21C1368.45,1775.8 1370.32,1776.65 1372.21,1776.39C1374.1,1776.14 1375.68,1774.83 1376.29,1773.02L1385.99,1743.99C1385.99,1743.99 1390.18,1775.03 1390.18,1775.03C1390.55,1777.76 1393.07,1779.68 1395.8,1779.31C1398.54,1778.94 1400.46,1776.42 1400.09,1773.69L1393.03,1721.33C1392.72,1719.02 1390.86,1717.23 1388.54,1717.02C1386.23,1716.8 1384.07,1718.2 1383.33,1720.41L1370.04,1760.16C1370.04,1760.16 1350.95,1731.51 1350.95,1731.51C1349.74,1729.68 1347.46,1728.86 1345.35,1729.5C1343.25,1730.13 1341.8,1732.07 1341.79,1734.27L1341.67,1778.15C1341.67,1780.91 1343.9,1783.16 1346.66,1783.16C1349.42,1783.17 1351.67,1780.94 1351.67,1778.18Z"/></g></g><text x="0" y="527" fill="#000000" font-size="5px" font-weight="bold" font-family="'Helvetica Neue', Helvetica, Arial-Unicode, Arial, Sans-serif">Created by Anditii Creative</text><text x="0" y="532" fill="#000000" font-size="5px" font-weight="bold" font-family="'Helvetica Neue', Helvetica, Arial-Unicode, Arial, Sans-serif">from the Noun Project</text></svg>