<svg xmlns="http://www.w3.org/2000/svg" version="1.1" viewBox="-5.0 -10.0 110.0 135.0">
 <path d="m82.469 39.391h-21.84v-21.812c0-2.6797-2.6797-5-5.5898-5h-10.039c-2.9219 0-5.6016 2.3516-5.6016 5v21.812h-21.867c-2.6797 0-5 2.6602-5 5.6016v10.008c0 3 2.3516 5.6211 5 5.6211h21.84v22.129c0 2.6289 2.6797 4.6992 5.6016 4.6992h10.027c2.9102 0 5.5898-2.0703 5.5898-4.6992v-22.121h21.879c2.6797 0 5-2.6484 5-5.6211v-10.008c0-2.9414-2.3516-5.6016-5-5.6016z" fill-rule="evenodd"/>
<text x="0.0" y="117.5" font-size="5.0" font-weight="bold" font-family="Arbeit Regular, Helvetica, Arial-Unicode, Arial, Sans-serif" fill="#000000">Created by susi susanti</text><text x="0.0" y="122.5" font-size="5.0" font-weight="bold" font-family="Arbeit Regular, Helvetica, Arial-Unicode, Arial, Sans-serif" fill="#000000">from Noun Project</text></svg>