<svg xmlns="http://www.w3.org/2000/svg" data-name="Layer 1" viewBox="0 0 100 125" x="0px" y="0px"><title>Artboard 9</title><path d="M93.61,77l-.44-18.15a2.64,2.64,0,0,0-4-2.19l-15.5,9.46a2.64,2.64,0,0,0,.11,4.58l3,1.64A31.94,31.94,0,0,1,58,85.53V35.92a17.53,17.53,0,1,0-16.06,0V85.53A31.94,31.94,0,0,1,23.23,72.38l3-1.64a2.64,2.64,0,0,0,.11-4.58L10.86,56.7a2.64,2.64,0,0,0-4,2.19L6.39,77a2.64,2.64,0,0,0,3.91,2.39l3.56-1.94a43,43,0,0,0,72.28,0l3.56,1.94A2.64,2.64,0,0,0,93.61,77ZM50,26.59a6.24,6.24,0,1,1,6.24-6.24A6.24,6.24,0,0,1,50,26.59Z"/><text x="0" y="115" fill="#000000" font-size="5px" font-weight="bold" font-family="'Helvetica Neue', Helvetica, Arial-Unicode, Arial, Sans-serif">Created by Gregor Cresnar</text><text x="0" y="120" fill="#000000" font-size="5px" font-weight="bold" font-family="'Helvetica Neue', Helvetica, Arial-Unicode, Arial, Sans-serif">from the Noun Project</text></svg>